<svg xmlns="http://www.w3.org/2000/svg" width="15.488" height="15.488" viewBox="0 0 15.488 15.488">
  <path id="iconmonstr-smiley-2" d="M7.744,1.291A6.453,6.453,0,1,1,1.291,7.744,6.461,6.461,0,0,1,7.744,1.291ZM7.744,0a7.744,7.744,0,1,0,7.744,7.744A7.744,7.744,0,0,0,7.744,0ZM11.3,9a5.392,5.392,0,0,1-3.553,1.246A5.393,5.393,0,0,1,4.19,9l-.318.318a4.759,4.759,0,0,0,3.873,2.3,4.758,4.758,0,0,0,3.871-2.3ZM5.485,5.163a.968.968,0,1,0,.968.968A.968.968,0,0,0,5.485,5.163Zm4.517,0a.968.968,0,1,0,.968.968A.968.968,0,0,0,10,5.163Z" fill="#eee"/>
</svg>
