<svg xmlns="http://www.w3.org/2000/svg" width="16.638" height="16.633" viewBox="0 0 16.638 16.633">
  <path id="kick" d="M11.643,3.272A4.981,4.981,0,0,0,7.762,5.128V.5H7.207V7.131A1.942,1.942,0,0,1,5.544,5.213a.277.277,0,0,0-.081-.2l-.244-.244A1.106,1.106,0,0,0,4.07,4.514L3.6.744l-.55.068.5,4.057L.912,7.512l-.832.832a.277.277,0,0,0,0,.392l.636.636-.636.636a.277.277,0,0,0,0,.392l.832.832a.277.277,0,0,0,.392,0l.636-.636,2.38,2.38-.636.636a.277.277,0,0,0,0,.392l.832.832a.277.277,0,0,0,.392,0l.636-.636.44.44-.636.636a.277.277,0,0,0,0,.392l.832.832a.277.277,0,0,0,.392,0l.636-.636,1.19,1.19a.277.277,0,0,0,.392,0l.832-.832.513-.513a1.354,1.354,0,0,0,.2-1.657l-.744-1.24a4.99,4.99,0,1,0,2.049-9.538ZM15.8,6.745l-2.312.63L11.92,6.233V3.841a4.437,4.437,0,0,1,3.885,2.9ZM12.551,9.512H10.734l-.561-1.728,1.469-1.068,1.469,1.068ZM8.309,8.2a.283.283,0,0,0-.04-.1l-.467-.7,1.827.5.594,1.828-1.247,1.58Zm3.056-4.368v2.4L9.792,7.375l-2.03-.554v-.7a4.429,4.429,0,0,1,3.6-2.281ZM2.633,6.575l.749.748a1.715,1.715,0,0,1,.074,2.339L1.5,7.708Zm5.96,9.889L7.4,15.274a.277.277,0,0,0-.392,0l-.636.636-.44-.44.636-.636a.277.277,0,0,0,0-.392l-.832-.832a.277.277,0,0,0-.392,0l-.636.636-.44-.44.636-.636a.277.277,0,0,0,0-.392L2.136,10.007a.277.277,0,0,0-.392,0l-.636.636-.44-.44L1.3,9.567a.277.277,0,0,0,0-.392L.669,8.54l.44-.44,7.924,7.924Zm1.149-1.149-.317.317L3.853,10.06a2.273,2.273,0,0,0-.078-3.129l-.749-.748L4.044,5.165a.554.554,0,0,1,.784,0l.166.166A2.5,2.5,0,0,0,7.335,7.7l.444.669L8.6,12.2a.277.277,0,0,0,.034.083l1.229,2.05a.8.8,0,0,1-.12.98Zm-.559-3.366,1.484-1.883h1.946L14.023,12a4.41,4.41,0,0,1-4.838-.05Zm5.288-.274L13.06,9.74l.6-1.834,2.308-.63a4.405,4.405,0,0,1-1.494,4.4Zm0,0" transform="translate(0 -0.5)" fill="#eee"/>
</svg>
